# Blender 4.2.2 LTS
# www.blender.org
o Cube
v 0.150000 -0.126991 0.000000
v 0.150000 -0.303605 0.250000
v -0.050000 -0.404045 0.000000
v -0.050000 -0.637176 0.350000
v 0.350000 0.020202 0.000000
v -0.350000 0.014865 0.000000
v 0.481394 0.550000 0.000000
v 0.650000 0.381394 0.000000
v 0.481394 0.390625 0.250000
v 0.650000 0.218606 0.000000
v 0.481394 -0.039996 0.000000
v 0.481394 -0.216610 0.250000
v 0.650000 0.043894 0.250000
v 0.150000 0.252921 0.000000
v 0.318606 0.513425 0.000000
v -0.218606 0.350048 0.000000
v -0.050000 0.119340 0.000000
v -0.750000 0.281394 0.000000
v -0.581394 0.450000 0.000000
v -0.750000 0.106939 0.350000
v -0.581394 -0.272651 0.000000
v -0.750000 -0.081394 0.000000
v -0.750000 -0.275075 0.350000
v -0.581394 -0.505782 0.350000
v 0.350000 -0.446810 0.000000
v 0.181394 -0.584798 0.000000
v 0.181394 -0.988489 1.000000
v 0.350000 -0.850501 1.000000
v -0.181394 -0.587565 0.000000
v -0.350000 -0.452148 0.000000
v -0.181394 -0.991255 1.000000
v -0.181394 -0.991255 1.000000
v -0.350000 -0.799195 0.625417
v -0.350000 -0.455692 0.625417
v -0.350000 -0.270401 0.458379
v 0.191621 -0.419324 1.000000
v -0.009444 -0.556680 1.000000
v 0.318606 0.396318 0.157440
v 0.449506 0.378398 0.250000
v 0.150000 -0.084352 0.250000
v 0.150000 0.135813 0.157440
v -0.050000 -0.061757 0.257440
v -0.050000 -0.263881 0.350000
v -0.349506 0.145939 0.350000
v -0.218606 0.168950 0.257440
v 0.191633 -0.419323 1.000000
v 0.350000 -0.850492 1.000000
v 0.350000 -0.160148 0.256195
v 0.650000 0.043908 0.250000
v 0.650000 0.381394 0.000013
v 0.481403 0.390616 0.250000
v -0.349518 0.145943 0.350000
v -0.581394 0.450000 0.000013
v -0.749991 0.106944 0.350000
vn -0.5654 -0.4248 -0.7070
vn -0.4664 -0.8069 0.3625
vn 0.5654 -0.4328 -0.7021
vn 0.4725 -0.7984 0.3733
vn 0.4884 0.7421 -0.4590
vn -0.5333 0.7179 -0.4475
vn 0.1955 0.8965 -0.3975
vn 0.7925 0.3107 -0.5248
vn 0.1818 0.5722 0.7997
vn 0.7098 -0.1280 -0.6927
vn 0.3918 -0.4465 -0.8044
vn 0.4798 -0.7689 0.4227
vn 0.7747 -0.3161 0.5476
vn -0.7777 0.3204 -0.5408
vn -0.4893 0.7640 -0.4206
vn 0.4704 0.7708 -0.4297
vn 0.7712 0.3468 -0.5338
vn -0.7424 0.3952 -0.5411
vn -0.2748 0.9204 -0.2781
vn -0.7335 0.2237 0.6418
vn -0.3517 -0.4700 -0.8096
vn -0.7097 -0.1682 -0.6842
vn -0.7598 -0.3490 0.5485
vn -0.4438 -0.7842 0.4336
vn 0.6981 -0.2488 -0.6714
vn 0.2362 -0.5964 -0.7671
vn 0.2748 -0.8227 0.4976
vn 0.7236 -0.4241 0.5445
vn -0.1413 -0.6156 -0.7753
vn -0.6578 -0.2716 -0.7025
vn -0.2072 -0.9694 0.1315
vn -0.6201 -0.4152 0.6657
vn -0.8823 -0.4696 0.0321
vn -0.8545 0.3067 0.4193
vn -0.7328 0.5820 0.3525
vn -0.1087 0.5241 0.8447
vn -0.3965 0.2804 0.8742
vn -0.5400 0.5893 0.6010
vn -0.2174 0.4253 0.8785
vn -0.7046 0.0519 0.7077
vn -0.8669 0.2486 0.4320
vn 0.8603 0.2723 0.4309
vn 0.7036 0.0617 0.7079
vn 0.2110 0.4358 0.8750
vn 0.5133 0.6099 0.6038
vn 0.3802 0.5354 0.7542
vn 0.7109 0.0660 0.7002
vn 0.7456 0.5913 0.3073
vn 0.7076 0.0657 0.7035
vn 0.8746 0.3824 0.2980
vn 0.4418 0.3424 0.8292
vn 0.0765 0.4776 0.8752
vn -0.2200 0.8174 0.5323
vn -0.3096 0.4610 0.8316
vt 0.625000 0.689790
vt 0.375009 0.810216
vt 0.375000 0.810216
vt 0.375000 0.689784
vt 0.625000 0.689784
vt 0.375000 0.000000
vt 0.558886 0.000000
vt 0.558886 0.060216
vt 0.375000 0.060216
vt 0.125000 0.500000
vt 0.314784 0.500000
vt 0.375000 0.560216
vt 0.314784 0.750000
vt 0.185216 0.750000
vt 0.125000 0.689784
vt 0.375000 0.500000
vt 0.625000 0.500000
vt 0.625000 0.600247
vt 0.532440 0.665697
vt 0.375000 0.665697
vt 0.790697 0.500000
vt 0.875000 0.584303
vt 0.875000 0.584309
vt 0.790701 0.749996
vt 0.790697 0.750000
vt 0.774753 0.750000
vt 0.625000 0.600247
vt 0.375000 0.334303
vt 0.625000 0.334303
vt 0.125000 0.560216
vt 0.185216 0.500000
vt 0.314784 0.500000
vt 0.375000 0.750000
vt 0.125000 0.750000
vt 0.375000 0.250000
vt 0.625000 0.250000
vt 0.625000 0.439784
vt 0.375000 0.439784
vt 0.625000 0.560216
vt 0.685216 0.500000
vt 0.875000 0.500000
vt 0.875000 0.643034
vt 0.768034 0.750000
vt 0.768029 0.750000
vt 0.625003 0.689787
vt 0.375000 0.310216
vt 0.625000 0.310216
vt 0.625000 0.439784
vt 0.531354 0.560216
vt 0.814784 0.500000
vt 0.875000 0.560216
vt 0.875000 0.560221
vt 0.818440 0.750000
vt 0.818436 0.750000
vt 0.746627 0.708701
vt 0.625000 0.000000
vt 0.625000 0.000004
vt 0.375013 0.084303
vt 0.375000 0.084303
vt 0.625000 0.165691
vt 0.625000 0.165697
vt 0.375000 0.165697
vt 0.375000 0.834303
vt 0.532440 0.834303
vt 0.625000 0.899753
vt 0.625000 0.915697
vt 0.375000 0.915697
vt 0.625000 0.106966
vt 0.625000 0.893029
vt 0.625000 0.893034
vt 0.558886 0.939784
vt 0.375000 0.939784
vt 0.375000 0.189784
vt 0.625000 0.189784
vt 0.125000 0.584303
vt 0.209303 0.500000
vt 0.290697 0.750000
vt 0.209303 0.750000
vt 0.125000 0.665697
vt 0.531354 0.707816
vt 0.489595 0.750000
vt 0.439049 0.000000
vt 0.625000 0.189779
vt 0.625000 0.943436
vt 0.489595 0.750000
vt 0.531354 0.750000
vt 0.620747 0.877703
vt 0.746627 0.708701
vt 0.625000 0.665697
vt 0.625000 0.834303
vt 0.625000 0.060216
vt 0.625000 0.943440
vt 0.439049 1.000000
vt 0.375000 1.000000
s 1
f 54/1/54 53/2/53 19/3/19 18/4/18 20/5/20
f 16/6/16 45/7/45 42/8/42 17/9/17
f 3/10/3 21/11/21 22/12/22 18/4/18 19/13/19 16/14/16 17/15/17
f 1/16/1 2/17/2 40/18/40 41/19/41 14/20/14
f 2/17/2 12/21/12 13/22/13 49/23/49 51/24/51 9/25/9 39/26/39 40/27/40
f 11/28/11 12/29/12 2/17/2 1/16/1
f 25/30/25 26/31/26 29/32/29 30/12/30 6/33/6 5/34/5
f 3/35/3 4/36/4 24/37/24 21/38/21
f 23/39/23 24/40/24 4/41/4 43/42/43 44/43/44 52/44/52 54/45/54 20/5/20
f 22/12/22 23/39/23 20/5/20 18/4/18
f 26/46/26 27/47/27 31/48/31 29/38/29
f 32/48/32 33/49/33 30/12/30 29/38/29 31/48/31
f 32/40/32 31/40/31 27/50/27 28/51/28 47/52/47 46/53/46 36/54/36 37/55/37
f 7/6/7 9/56/9 51/57/51 50/58/50 8/59/8
f 8/59/8 50/58/50 49/60/49 13/61/13 10/62/10
f 12/29/12 11/28/11 10/62/10 13/61/13
f 15/63/15 38/64/38 39/65/39 9/66/9 7/67/7
f 17/9/17 42/8/42 43/68/43 4/36/4 3/35/3
f 23/39/23 22/12/22 21/38/21 24/37/24
f 19/3/19 53/2/53 52/69/52 44/70/44 45/71/45 16/72/16
f 27/47/27 26/46/26 25/73/25 28/74/28
f 10/75/10 11/76/11 1/16/1 14/20/14 15/77/15 7/78/7 8/79/8
f 30/12/30 33/49/33 34/80/34 35/81/35 6/33/6
f 5/6/5 48/82/48 47/83/47 28/74/28 25/73/25
f 36/84/36 35/85/35 34/86/34 37/87/37
f 34/80/34 33/49/33 32/40/32 37/88/37
f 40/89/40 39/90/39 38/64/38 41/19/41
f 44/56/44 43/91/43 42/8/42 45/7/45
f 38/64/38 15/63/15 14/20/14 41/19/41
f 46/92/46 47/52/47 48/82/48
f 49/23/49 50/58/50 51/57/51
f 52/44/52 53/2/53 54/1/54
f 6/33/6 35/85/35 36/84/36 46/92/46 48/93/48 5/94/5
