# Blender 4.2.2 LTS
# www.blender.org
o Torus.001
v -1.000000 0.000000 0.000000
v -0.941511 0.160697 0.000000
v -0.793412 0.246202 0.000000
v -0.625000 0.201972 0.000000
v -0.625000 -0.231041 -0.000000
v -0.793412 -0.246202 -0.000000
v -0.941511 -0.160697 -0.000000
v -0.923880 -0.125383 0.382683
v -0.869843 0.011836 0.360301
v -0.733017 0.037892 0.303626
v -0.577425 -0.059406 0.239177
v -0.577425 -0.492419 0.239177
v -0.733017 -0.454512 0.303626
v -0.869843 -0.309558 0.360301
v -0.707107 -0.479920 0.707107
v -0.665749 -0.321965 0.665749
v -0.561027 -0.243402 0.561027
v -0.441942 -0.280992 0.441942
v -0.441942 -0.714004 0.441942
v -0.561027 -0.735806 0.561027
v -0.665749 -0.643359 0.665749
v -0.382684 -0.716814 0.923879
v -0.360301 -0.545003 0.869843
v -0.303626 -0.431356 0.733017
v -0.239177 -0.429050 0.577425
v -0.239177 -0.862063 0.577425
v -0.303626 -0.923760 0.733017
v -0.360301 -0.866397 0.869843
v -0.000000 -0.800000 1.000000
v -0.000000 -0.623324 0.941511
v -0.000000 -0.497357 0.793412
v -0.000000 -0.481042 0.625000
v -0.000000 -0.914054 0.625000
v -0.000000 -0.989761 0.793412
v -0.000000 -0.944718 0.941511
v 0.382684 -0.716814 0.923880
v 0.360301 -0.545003 0.869843
v 0.303626 -0.431356 0.733017
v 0.239177 -0.429050 0.577425
v 0.239177 -0.862063 0.577425
v 0.303626 -0.923760 0.733017
v 0.360301 -0.866397 0.869843
v 0.707107 -0.479920 0.707107
v 0.665749 -0.321965 0.665749
v 0.561027 -0.243402 0.561027
v 0.441942 -0.280991 0.441942
v 0.441942 -0.714004 0.441942
v 0.561027 -0.735805 0.561027
v 0.665749 -0.643358 0.665749
v 0.923880 -0.125383 0.382683
v 0.869843 0.011836 0.360301
v 0.733017 0.037892 0.303626
v 0.577425 -0.059406 0.239177
v 0.577425 -0.492419 0.239177
v 0.733017 -0.454512 0.303626
v 0.869843 -0.309558 0.360301
v 1.000000 -0.000000 0.000000
v 0.941511 0.160697 0.000000
v 0.793412 0.246202 0.000000
v 0.625000 0.201972 0.000000
v 0.793412 -0.000000 0.000000
v -0.793412 0.000000 0.000000
v 0.625000 -0.231041 0.000000
v 0.793412 -0.246202 0.000000
v 0.941511 -0.160697 0.000000
vn -0.9695 0.0923 0.2269
vn -0.8931 0.0684 0.4446
vn -0.4712 0.6434 0.6034
vn -0.5698 0.6857 0.4529
vn 0.2032 0.7977 0.5678
vn 0.0825 0.8317 0.5491
vn 0.8901 0.4443 0.1022
vn 0.6869 0.6116 0.3926
vn 0.7268 -0.4412 -0.5264
vn 0.3586 -0.5609 -0.7462
vn -0.5417 -0.7390 -0.4005
vn -0.4637 -0.7728 -0.4333
vn -0.8672 -0.4976 0.0188
vn -0.8691 -0.4914 -0.0570
vn -0.7257 -0.0122 0.6879
vn -0.2374 0.5548 0.7974
vn 0.3301 0.7818 0.5290
vn 0.8279 0.5151 -0.2221
vn 0.1306 -0.5627 -0.8163
vn -0.5525 -0.7926 -0.2579
vn -0.7946 -0.5518 0.2533
vn -0.4135 -0.0541 0.9089
vn -0.1278 0.5296 0.8385
vn 0.1978 0.8653 0.4605
vn 0.5384 0.6585 -0.5258
vn 0.0270 -0.5998 -0.7997
vn -0.3493 -0.9322 -0.0949
vn -0.4933 -0.6740 0.5498
vn -0.0000 -0.0741 0.9973
vn -0.0000 0.5182 0.8552
vn -0.0000 0.8996 0.4367
vn -0.0000 0.7409 -0.6717
vn -0.0000 -0.0000 -1.0000
vn -0.0000 -0.6238 -0.7816
vn -0.0000 -0.9998 -0.0206
vn -0.0000 -0.7378 0.6750
vn 0.4135 -0.0541 0.9089
vn 0.1278 0.5296 0.8385
vn -0.1978 0.8653 0.4605
vn -0.5384 0.6585 -0.5258
vn -0.0270 -0.5998 -0.7997
vn 0.3493 -0.9322 -0.0949
vn 0.4933 -0.6740 0.5498
vn 0.7257 -0.0122 0.6879
vn 0.2374 0.5548 0.7974
vn -0.3301 0.7818 0.5290
vn -0.8279 0.5151 -0.2221
vn -0.7268 -0.4412 -0.5264
vn -0.3586 -0.5609 -0.7462
vn -0.8901 0.4443 0.1022
vn -0.6869 0.6116 0.3926
vn -0.1306 -0.5627 -0.8163
vn 0.5525 -0.7926 -0.2579
vn 0.7946 -0.5518 0.2533
vn 0.8931 0.0684 0.4446
vn 0.4712 0.6434 0.6034
vn -0.2032 0.7977 0.5678
vn 0.5417 -0.7390 -0.4005
vn 0.8672 -0.4976 0.0188
vn 0.9695 0.0923 0.2269
vn 0.5698 0.6857 0.4529
vn -0.0825 0.8317 0.5491
vn 0.4637 -0.7728 -0.4333
vn 0.8691 -0.4914 -0.0570
vt 0.395498 0.999888
vt 0.396449 0.847149
vt 0.455684 0.843776
vt 0.473022 0.991962
vt 0.519308 0.836181
vt 0.548584 0.966738
vt 0.592608 0.823252
vt 0.620311 0.932900
vt 0.179843 0.935407
vt 0.202405 0.829358
vt 0.274146 0.838835
vt 0.249857 0.964736
vt 0.337914 0.845634
vt 0.320440 0.989080
vt 0.395778 0.724415
vt 0.449639 0.722352
vt 0.506665 0.718764
vt 0.576844 0.714171
vt 0.216928 0.718327
vt 0.284206 0.722236
vt 0.341827 0.724611
vt 0.395301 0.610779
vt 0.445978 0.609600
vt 0.503199 0.608226
vt 0.570078 0.607146
vt 0.216063 0.608610
vt 0.286326 0.610312
vt 0.344384 0.611214
vt 0.395731 0.500937
vt 0.446463 0.500978
vt 0.500534 0.501759
vt 0.564895 0.502752
vt 0.708690 0.285445
vt 0.708690 0.380481
vt 0.651523 0.347476
vt 0.628946 0.285445
vt 0.651523 0.223415
vt 0.708690 0.190409
vt 0.223977 0.499075
vt 0.289621 0.500130
vt 0.344618 0.500904
vt 0.397667 0.391148
vt 0.448719 0.392247
vt 0.506309 0.395240
vt 0.573350 0.398217
vt 0.773699 0.201872
vt 0.773699 0.369019
vt 0.693954 0.000112
vt 0.751122 0.033118
vt 0.773699 0.095148
vt 0.693954 0.095148
vt 0.751122 0.157179
vt 0.693954 0.190184
vt 0.220052 0.389346
vt 0.289166 0.390350
vt 0.346227 0.390931
vt 0.401749 0.276683
vt 0.455289 0.279073
vt 0.513629 0.284788
vt 0.583018 0.290743
vt 0.628946 0.178722
vt 0.628946 0.011575
vt 0.194126 0.053677
vt 0.211445 0.164793
vt 0.011783 0.183601
vt 0.000113 0.077143
vt 0.214177 0.278089
vt 0.019723 0.290895
vt 0.288001 0.275847
vt 0.347715 0.276072
vt 0.408168 0.153755
vt 0.466586 0.158188
vt 0.528010 0.168564
vt 0.599403 0.183136
vt 0.025572 0.397272
vt 0.028722 0.501467
vt 0.027463 0.604391
vt 0.283489 0.155697
vt 0.348087 0.152272
vt 0.416385 0.000112
vt 0.491894 0.015601
vt 0.561034 0.044841
vt 0.628721 0.079042
vt 0.023231 0.706994
vt 0.014215 0.807782
vt 0.000112 0.906893
vt 0.263895 0.026549
vt 0.339358 0.006376
s 1
f 1/1/1 8/2/2 9/3/3 2/4/4
f 2/4/4 9/3/3 10/5/5 3/6/6
f 3/6/6 10/5/5 11/7/7 4/8/8
f 5/9/9 12/10/10 13/11/11 6/12/12
f 6/12/12 13/11/11 14/13/13 7/14/14
f 7/14/14 14/13/13 8/2/2 1/1/1
f 8/2/2 15/15/15 16/16/16 9/3/3
f 9/3/3 16/16/16 17/17/17 10/5/5
f 10/5/5 17/17/17 18/18/18 11/7/7
f 12/10/10 19/19/19 20/20/20 13/11/11
f 13/11/11 20/20/20 21/21/21 14/13/13
f 14/13/13 21/21/21 15/15/15 8/2/2
f 15/15/15 22/22/22 23/23/23 16/16/16
f 16/16/16 23/23/23 24/24/24 17/17/17
f 17/17/17 24/24/24 25/25/25 18/18/18
f 19/19/19 26/26/26 27/27/27 20/20/20
f 20/20/20 27/27/27 28/28/28 21/21/21
f 21/21/21 28/28/28 22/22/22 15/15/15
f 22/22/22 29/29/29 30/30/30 23/23/23
f 23/23/23 30/30/30 31/31/31 24/24/24
f 24/24/24 31/31/31 32/32/32 25/25/25
f 61/33/33 59/34/33 58/35/33 57/36/33
f 57/36/33 65/37/33 64/38/33 61/33/33
f 26/26/26 33/39/34 34/40/35 27/27/27
f 27/27/27 34/40/35 35/41/36 28/28/28
f 28/28/28 35/41/36 29/29/29 22/22/22
f 29/29/29 36/42/37 37/43/38 30/30/30
f 30/30/30 37/43/38 38/44/39 31/31/31
f 31/31/31 38/44/39 39/45/40 32/32/32
f 64/38/33 63/46/33 60/47/33 59/34/33 61/33/33
f 6/48/33 7/49/33 1/50/33 62/51/33
f 1/50/33 2/52/33 3/53/33 62/51/33
f 33/39/34 40/54/41 41/55/42 34/40/35
f 34/40/35 41/55/42 42/56/43 35/41/36
f 35/41/36 42/56/43 36/42/37 29/29/29
f 36/42/37 43/57/44 44/58/45 37/43/38
f 37/43/38 44/58/45 45/59/46 38/44/39
f 38/44/39 45/59/46 46/60/47 39/45/40
f 3/53/33 4/61/33 5/62/33 6/48/33 62/51/33
f 63/63/48 54/64/49 53/65/50 60/66/51
f 53/65/50 54/64/49 47/67/52 46/68/47
f 40/54/41 47/67/52 48/69/53 41/55/42
f 41/55/42 48/69/53 49/70/54 42/56/43
f 42/56/43 49/70/54 43/57/44 36/42/37
f 43/57/44 50/71/55 51/72/56 44/58/45
f 44/58/45 51/72/56 52/73/57 45/59/46
f 45/59/46 52/73/57 53/74/50 46/60/47
f 46/68/47 47/67/52 40/54/41 39/75/40
f 39/75/40 40/54/41 33/39/34 32/76/32
f 32/76/32 33/39/34 26/26/26 25/77/25
f 47/67/52 54/64/49 55/78/58 48/69/53
f 48/69/53 55/78/58 56/79/59 49/70/54
f 49/70/54 56/79/59 50/71/55 43/57/44
f 50/71/55 57/80/60 58/81/61 51/72/56
f 51/72/56 58/81/61 59/82/62 52/73/57
f 52/73/57 59/82/62 60/83/51 53/74/50
f 25/77/25 26/26/26 19/19/19 18/84/18
f 18/84/18 19/19/19 12/10/10 11/85/7
f 11/85/7 12/10/10 5/9/9 4/86/8
f 54/64/49 63/63/48 64/87/63 55/78/58
f 55/78/58 64/87/63 65/88/64 56/79/59
f 56/79/59 65/88/64 57/80/60 50/71/55
