# Blender 4.2.2 LTS
# www.blender.org
mtllib asteroidLow.mtl
o file1.001
v 0.403496 0.597870 0.607433
v -0.032481 0.375262 0.849573
v 0.282190 0.414030 0.790517
v -0.360475 0.257416 -0.915778
v -0.105971 -0.000809 0.942904
v -0.503667 0.757261 -0.264406
v -0.941653 -0.203319 -0.099111
v 0.847014 0.081864 0.370646
v -0.602190 -0.706996 0.072956
v 0.121597 -0.449314 0.816047
v -0.616058 -0.575623 -0.476747
v 0.125213 -0.643537 0.664192
v -0.276920 0.344840 0.859627
v 0.713444 0.311649 0.543978
v -0.702172 0.154885 -0.624109
v 0.377561 -0.015243 0.854251
v -0.242893 -0.115604 -0.939446
v 0.243160 -0.900130 0.152821
v 0.060431 0.678741 -0.759234
v 0.236598 0.163025 -1.011954
v -0.107877 -0.545983 0.789089
v -0.811921 -0.272556 0.475295
v 0.106832 -0.058876 0.928909
v -0.183718 0.650419 0.618802
v -0.359773 -0.530946 -0.739587
v -0.412869 -0.793891 -0.315959
v -0.523700 -0.094307 0.808816
v -0.859839 -0.089757 -0.446241
v 0.519660 -0.284342 0.668452
v 0.414072 -0.571196 -0.759421
v -0.729846 0.502355 -0.479682
v 0.621638 0.761705 0.093309
v 0.658967 -0.464078 0.452917
v -0.774855 -0.299719 -0.370957
v 0.433262 -0.850490 -0.338823
v -0.565275 -0.526318 0.573221
v -0.274745 -0.950112 0.078221
v -0.834915 0.483286 0.075847
v -0.589972 0.487653 0.611860
v 0.558568 0.074132 0.743930
v 0.165673 0.211661 0.843597
v -0.772941 -0.553036 -0.044101
v -0.416468 0.747180 -0.561351
v 0.265895 0.920220 -0.266626
v -0.059391 -0.851598 0.460802
v 0.695635 0.466468 -0.604622
v 0.912710 -0.106016 0.072565
v -0.576175 0.764935 0.145049
v -0.752817 -0.083302 0.627117
v 0.812838 -0.154328 -0.618364
v 0.679721 -0.621979 -0.038970
v 0.942305 -0.283450 -0.362877
v -0.974098 0.080211 0.262250
v 0.384385 -0.695158 0.455969
v 0.079641 -0.388134 -0.943551
v -0.261190 0.515855 -0.837703
v -0.491996 -0.821284 -0.094301
v 0.672448 -0.086213 0.574398
v 0.759640 0.539405 0.269287
v -0.523456 -0.150164 -0.783243
v 0.949591 0.229617 -0.365983
v 0.331392 -0.415773 0.749703
v 0.073256 0.904852 0.318173
v -0.137828 0.936029 -0.304071
v -0.469148 -0.787410 0.012440
v -0.467436 -0.774947 0.015707
v -0.475142 -0.779056 0.007464
vn 0.3241 -0.2445 0.9139
vn 0.3294 -0.2536 0.9095
vn 0.3308 -0.2491 0.9102
vn 0.0680 0.6693 0.7399
vn 0.0279 0.6657 0.7457
vn 0.0597 0.6595 0.7493
vn 0.6073 -0.7386 0.2925
vn 0.6171 -0.7461 0.2501
vn 0.6547 -0.7144 0.2470
vn -0.5693 -0.7588 0.3165
vn -0.5635 -0.7719 0.2944
vn -0.5658 -0.7605 0.3187
vn -0.8750 -0.0848 0.4767
vn -0.8735 -0.1182 0.4722
vn -0.8559 -0.1284 0.5010
vn 0.2484 0.2651 0.9317
vn 0.1700 0.2622 0.9499
vn 0.2206 0.2382 0.9458
vn 0.4245 0.2307 0.8755
vn 0.4201 0.2263 0.8788
vn 0.4283 0.2131 0.8781
vn -0.0432 0.6124 0.7894
vn -0.0372 0.6422 0.7657
vn -0.0763 0.6246 0.7772
vn 0.3213 -0.8435 0.4305
vn 0.2853 -0.8406 0.4605
vn 0.2932 -0.8562 0.4255
vn 0.8111 -0.0035 0.5849
vn 0.7994 -0.0980 0.5928
vn 0.8310 -0.0245 0.5557
vn -0.0154 -0.2721 0.9622
vn -0.0223 -0.2903 0.9567
vn -0.0079 -0.2830 0.9591
vn -0.3119 0.8307 0.4611
vn -0.2939 0.8394 0.4572
vn -0.3126 0.8432 0.4374
vn 0.0776 0.8820 -0.4648
vn 0.0760 0.8892 -0.4511
vn 0.0852 0.8802 -0.4668
vn 0.4277 -0.6226 0.6554
vn 0.4077 -0.6172 0.6729
vn 0.4108 -0.6251 0.6637
vn -0.6385 -0.3593 -0.6806
vn -0.6478 -0.3435 -0.6800
vn -0.6255 -0.3490 -0.6978
vn 0.0650 -0.7211 0.6897
vn 0.0411 -0.7390 0.6724
vn 0.0651 -0.7316 0.6786
vn -0.0574 -0.8329 -0.5505
vn -0.0599 -0.8350 -0.5470
vn -0.0581 -0.8326 -0.5508
vn -0.2186 0.9665 0.1343
vn -0.2480 0.9609 0.1235
vn -0.2419 0.9615 0.1302
vn -0.3178 0.0710 0.9455
vn -0.3190 0.0699 0.9452
vn -0.3268 0.0154 0.9450
vn -0.7956 -0.1693 -0.5816
vn -0.7567 -0.2657 -0.5974
vn -0.8028 -0.2572 -0.5380
vn 0.0772 -0.9698 0.2313
vn 0.0622 -0.9745 0.2156
vn 0.0639 -0.9750 0.2128
vn -0.7539 0.5615 0.3410
vn -0.7171 0.6080 0.3407
vn -0.7420 0.6031 0.2929
vn 0.8336 -0.3642 0.4152
vn 0.8336 -0.3661 0.4137
vn 0.8357 -0.3646 0.4108
vn -0.0934 -0.0901 -0.9916
vn -0.0799 -0.0990 -0.9919
vn -0.1166 -0.1173 -0.9862
vn 0.8643 -0.4424 0.2394
vn 0.8628 -0.4517 0.2270
vn 0.8663 -0.4398 0.2369
vn 0.9641 0.1654 0.2076
vn 0.9666 0.1598 0.2001
vn 0.9641 0.1719 0.2023
vn -0.9708 0.1147 -0.2106
vn -0.9743 0.1280 -0.1855
vn -0.9743 0.1543 -0.1639
vn 0.7434 -0.6617 -0.0974
vn 0.7262 -0.6805 -0.0976
vn 0.7384 -0.6671 -0.0986
vn 0.0014 -0.2719 0.9623
vn 0.0126 -0.2539 0.9671
vn -0.0071 -0.2595 0.9657
vn 0.3351 -0.5700 0.7502
vn 0.2980 -0.5907 0.7498
vn 0.3305 -0.5800 0.7445
vn 0.4925 0.3612 0.7919
vn 0.4858 0.3544 0.7990
vn 0.5006 0.3365 0.7976
vn 0.1636 -0.6050 0.7792
vn 0.1601 -0.6262 0.7630
vn 0.1911 -0.6133 0.7664
vn -0.6618 0.0019 -0.7496
vn -0.6514 0.0195 -0.7585
vn -0.5802 0.0233 -0.8142
vn -0.3229 -0.7160 0.6189
vn -0.3229 -0.7167 0.6182
vn -0.3129 -0.7191 0.6205
vn 0.1069 0.3271 0.9389
vn 0.1357 0.2701 0.9532
vn 0.1487 0.2785 0.9489
vn -0.4443 0.8794 -0.1708
vn -0.4593 0.8735 -0.1615
vn -0.4435 0.8844 -0.1451
vn 0.8498 0.5270 -0.0044
vn 0.8415 0.5400 0.0132
vn 0.8535 0.5210 -0.0036
vn 0.6094 0.1316 -0.7818
vn 0.6044 0.1211 -0.7874
vn 0.6022 0.1358 -0.7867
vn -0.0032 0.4392 -0.8984
vn -0.0050 0.4282 -0.9037
vn -0.0084 0.4445 -0.8958
vn 0.8899 -0.0128 -0.4559
vn 0.8868 -0.0309 -0.4611
vn 0.8877 -0.0134 -0.4601
vn -0.5561 -0.7846 -0.2741
vn -0.5818 -0.7547 -0.3030
vn -0.5744 -0.7550 -0.3164
vn -0.0991 0.3236 -0.9410
vn -0.0977 0.3182 -0.9430
vn -0.1098 0.3246 -0.9395
vn -0.9625 0.2095 -0.1723
vn -0.9625 0.2012 -0.1820
vn -0.9707 0.1749 -0.1646
vn -0.7414 -0.6082 0.2837
vn -0.7457 -0.6061 0.2768
vn -0.7361 -0.6281 0.2522
vn -0.0958 0.8467 -0.5233
vn -0.0952 0.8491 -0.5197
vn -0.0903 0.8480 -0.5222
vn 0.0749 0.6784 0.7308
vn 0.0735 0.6968 0.7135
vn 0.0727 0.6758 0.7335
vn -0.7098 0.6953 -0.1133
vn -0.7207 0.6826 -0.1214
vn -0.7180 0.6871 -0.1114
vn 0.2849 -0.7862 0.5484
vn 0.2706 -0.7863 0.5555
vn 0.2859 -0.7905 0.5415
vn -0.4253 -0.1642 0.8900
vn -0.4643 -0.1494 0.8730
vn -0.4355 -0.2092 0.8755
vn -0.8661 -0.4021 -0.2970
vn -0.8767 -0.3877 -0.2848
vn -0.8720 -0.3885 -0.2978
vn -0.2697 0.6452 0.7149
vn -0.2711 0.6516 0.7085
vn -0.2797 0.6268 0.7272
vn -0.3488 -0.9077 -0.2332
vn -0.3529 -0.9033 -0.2440
vn -0.3321 -0.9114 -0.2431
vn 0.3820 0.7568 -0.5303
vn 0.3904 0.7429 -0.5437
vn 0.3769 0.7590 -0.5308
vn -0.7384 0.1367 0.6603
vn -0.7619 0.1467 0.6308
vn -0.7431 0.1345 0.6555
vn 0.8825 -0.4347 0.1796
vn 0.8813 -0.4375 0.1783
vn 0.8820 -0.4366 0.1774
vn -0.4487 0.8886 -0.0946
vn -0.4453 0.8908 -0.0903
vn -0.4341 0.8943 -0.1083
vn -0.8349 0.1466 -0.5305
vn -0.8431 0.1447 -0.5179
vn -0.8325 0.1571 -0.5313
vn 0.8879 -0.1658 0.4292
vn 0.8812 -0.1731 0.4399
vn 0.8908 -0.1713 0.4209
vn -0.8301 0.4387 0.3441
vn -0.8143 0.4451 0.3725
vn -0.8119 0.4544 0.3665
vn -0.7961 -0.2086 -0.5681
vn -0.8125 -0.1788 -0.5548
vn -0.8038 -0.1635 -0.5720
vn -0.6288 0.7484 -0.2108
vn -0.6465 0.7221 -0.2462
vn -0.6395 0.7407 -0.2059
vn -0.8009 -0.5125 -0.3097
vn -0.8370 -0.4419 -0.3228
vn -0.8199 -0.4560 -0.3461
vn -0.9295 -0.3240 0.1765
vn -0.9310 -0.3239 0.1683
vn -0.9303 -0.3244 0.1710
vn 0.0051 0.2365 0.9716
vn 0.0329 0.2256 0.9737
vn 0.0044 0.2536 0.9673
vn -0.1793 0.6955 -0.6958
vn -0.2427 0.7031 -0.6684
vn -0.1920 0.7201 -0.6668
vn 0.3088 -0.4285 0.8492
vn 0.2986 -0.4238 0.8551
vn 0.3034 -0.4279 0.8514
vn 0.6246 -0.3339 0.7060
vn 0.5844 -0.3052 0.7519
vn 0.5470 -0.3611 0.7552
vn 0.7102 -0.2051 0.6734
vn 0.6922 -0.2695 0.6695
vn 0.7368 -0.2146 0.6412
vn 0.7491 0.1602 -0.6428
vn 0.7519 0.1487 -0.6423
vn 0.7461 0.1591 -0.6466
vn 0.4292 -0.1060 -0.8970
vn 0.4428 -0.1083 -0.8900
vn 0.4298 -0.1127 -0.8958
vn -0.4340 -0.7953 0.4233
vn -0.3949 -0.8177 0.4189
vn -0.4111 -0.7941 0.4476
vn -0.6885 -0.7238 0.0458
vn -0.6869 -0.7255 0.0430
vn -0.6723 -0.7387 0.0486
vn 0.7655 0.6077 -0.2115
vn 0.7665 0.6056 -0.2138
vn 0.7653 0.6073 -0.2131
vn -0.2415 -0.2571 0.9357
vn -0.2573 -0.2942 0.9204
vn -0.2280 -0.2730 0.9346
vn -0.4386 -0.2745 -0.8557
vn -0.4302 -0.2919 -0.8542
vn -0.4634 -0.3303 -0.8223
vn -0.5300 0.4546 -0.7159
vn -0.5488 0.4385 -0.7117
vn -0.5396 0.4597 -0.7053
vn -0.0703 -0.8408 -0.5368
vn -0.0669 -0.8509 -0.5210
vn -0.0792 -0.8407 -0.5356
vn 0.4497 -0.5203 0.7260
vn 0.4414 -0.5154 0.7345
vn 0.4479 -0.5423 0.7109
vn 0.6163 -0.5099 0.6002
vn 0.5997 -0.5305 0.5991
vn 0.6237 -0.5101 0.5923
vn -0.4040 -0.4077 0.8189
vn -0.4130 -0.3986 0.8189
vn -0.4010 -0.4204 0.8139
vn 0.0778 0.7261 0.6832
vn 0.0799 0.7275 0.6815
vn 0.0642 0.7380 0.6717
vn 0.9968 -0.0078 0.0791
vn 0.9963 -0.0268 0.0820
vn 0.9979 -0.0182 0.0623
vn 0.7553 0.6289 -0.1845
vn 0.7599 0.6246 -0.1801
vn 0.7575 0.6262 -0.1846
vn -0.6481 0.2765 -0.7096
vn -0.6620 0.2297 -0.7134
vn -0.6798 0.2411 -0.6926
vn -0.5445 0.2105 0.8119
vn -0.5418 0.2220 0.8107
vn -0.5463 0.2118 0.8104
vn 0.5726 0.3613 0.7359
vn 0.5576 0.3762 0.7400
vn 0.5685 0.3604 0.7395
vn 0.3667 0.5223 -0.7699
vn 0.3658 0.5004 -0.7847
vn 0.3600 0.5068 -0.7833
vn 0.6200 0.5508 0.5588
vn 0.6189 0.5447 0.5660
vn 0.6224 0.5482 0.5587
vn 0.4689 -0.1318 0.8733
vn 0.4588 -0.1426 0.8770
vn 0.4779 -0.1461 0.8662
vn -0.3879 -0.7612 -0.5197
vn -0.4049 -0.7646 -0.5014
vn -0.4012 -0.7453 -0.5325
vn -0.2987 -0.4283 -0.8529
vn -0.3106 -0.4491 -0.8378
vn -0.2996 -0.4272 -0.8531
vn -0.6798 0.7224 -0.1264
vn -0.6824 0.7183 -0.1356
vn -0.6828 0.7181 -0.1344
vn 0.6213 0.7465 -0.2383
vn 0.5970 0.7582 -0.2622
vn 0.5979 0.7603 -0.2539
vn 0.5488 0.6974 0.4610
vn 0.5512 0.7027 0.4499
vn 0.5435 0.7050 0.4557
vn 0.6744 -0.6056 -0.4225
vn 0.6369 -0.6342 -0.4382
vn 0.6604 -0.6113 -0.4361
vn -0.4713 -0.0903 -0.8773
vn -0.4752 -0.1009 -0.8741
vn -0.4808 -0.0917 -0.8720
vn 0.1267 -0.9894 -0.0711
vn 0.0923 -0.9945 -0.0486
vn 0.0991 -0.9929 -0.0650
vn 0.6598 -0.1604 0.7341
vn 0.6741 -0.1278 0.7275
vn 0.6535 -0.1597 0.7398
vn 0.4667 -0.2266 -0.8549
vn 0.4578 -0.2378 -0.8567
vn 0.4395 -0.2313 -0.8680
vn -0.8243 -0.4538 -0.3387
vn -0.8296 -0.4354 -0.3495
vn -0.8146 -0.4596 -0.3539
vn -0.5421 -0.7393 -0.3994
vn -0.5302 -0.7628 -0.3702
vn -0.5723 -0.7112 -0.4083
vn 0.2460 -0.2617 0.9332
vn 0.2153 -0.2802 0.9355
vn 0.2536 -0.2777 0.9266
vn -0.6842 -0.0283 0.7287
vn -0.8189 -0.2290 0.5263
vn -0.7056 -0.0874 0.7032
vn -0.6560 -0.6601 0.3660
vn -0.7009 -0.6283 0.3376
vn -0.6597 -0.6697 0.3411
vn 0.3880 0.8184 0.4238
vn 0.3852 0.8174 0.4283
vn 0.3908 0.8161 0.4256
vn 0.1997 0.2122 0.9566
vn 0.1675 0.2069 0.9639
vn 0.1917 0.1843 0.9640
vn 0.6038 -0.7604 0.2393
vn 0.5947 -0.7668 0.2415
vn 0.5952 -0.7669 0.2399
vn 0.6758 -0.4564 -0.5788
vn 0.7006 -0.4430 -0.5594
vn 0.6793 -0.4562 -0.5749
vn -0.4162 0.7123 0.5652
vn -0.4438 0.7079 0.5495
vn -0.4154 0.7046 0.5754
vn -0.5725 0.3973 -0.7172
vn -0.6025 0.4185 -0.6796
vn -0.5755 0.4617 -0.6750
vn 0.0279 0.9986 0.0447
vn 0.0407 0.9981 0.0468
vn 0.0359 0.9987 0.0349
vn -0.6912 -0.6963 -0.1934
vn -0.6951 -0.6853 -0.2172
vn -0.6780 -0.6975 -0.2317
vn -0.0580 -0.9410 -0.3333
vn -0.0792 -0.9352 -0.3450
vn -0.0638 -0.9322 -0.3563
vn -0.9591 0.1825 -0.2165
vn -0.9517 0.2396 -0.1920
vn -0.9450 0.2343 -0.2282
vn 0.7754 -0.0476 0.6297
vn 0.7752 -0.0258 0.6311
vn 0.7704 -0.0299 0.6368
vn 0.2858 0.9512 0.1164
vn 0.3052 0.9429 0.1330
vn 0.3034 0.9457 0.1170
vn -0.1485 0.0401 -0.9881
vn -0.1366 -0.0126 -0.9905
vn -0.1592 0.0122 -0.9872
vn 0.1646 0.1844 0.9690
vn 0.1400 0.1538 0.9781
vn 0.1864 0.1565 0.9699
vn -0.6303 -0.3571 0.6894
vn -0.6430 -0.3442 0.6841
vn -0.6341 -0.3580 0.6854
vn -0.8992 -0.4096 0.1537
vn -0.9007 -0.4039 0.1598
vn -0.8991 -0.4132 0.1448
vn 0.5752 -0.8051 0.1448
vn 0.5354 -0.8357 0.1221
vn 0.5757 -0.8055 0.1407
vn -0.5954 -0.3353 0.7301
vn -0.6133 -0.3552 0.7054
vn -0.5932 -0.3427 0.7285
vn -0.3335 0.8165 0.4712
vn -0.3353 0.8146 0.4732
vn -0.3334 0.8111 0.4806
vn 0.9503 0.1417 0.2772
vn 0.9504 0.1362 0.2795
vn 0.9516 0.1441 0.2715
vn -0.0442 -0.7540 -0.6554
vn -0.0526 -0.7605 -0.6472
vn -0.0573 -0.7566 -0.6514
vn -0.7405 -0.6123 0.2770
vn -0.7457 -0.6120 0.2635
vn -0.7327 -0.6249 0.2694
vn -0.2938 -0.3323 -0.8963
vn -0.2969 -0.3476 -0.8894
vn -0.3427 -0.3466 -0.8732
vn 0.1377 0.1780 0.9743
vn 0.1368 0.1690 0.9761
vn 0.1543 0.1641 0.9743
vn -0.3617 -0.8636 0.3512
vn -0.3622 -0.8558 0.3694
vn -0.3780 -0.8603 0.3420
vt 0.385276 0.774846
vt 0.403783 0.738187
vt 0.410902 0.776965
vt 0.384272 0.829265
vt 0.394929 0.815575
vt 0.395496 0.831428
vt 0.453569 0.612663
vt 0.402555 0.500199
vt 0.477299 0.485602
vt 0.242969 0.718466
vt 0.183657 0.666387
vt 0.246899 0.695599
vt 0.225279 0.599720
vt 0.175232 0.564331
vt 0.247498 0.500443
vt 0.492982 0.324432
vt 0.491676 0.306101
vt 0.516800 0.309969
vt 0.471490 0.279010
vt 0.472707 0.229219
vt 0.545909 0.258410
vt 0.767706 0.339490
vt 0.767337 0.362961
vt 0.762275 0.345402
vt 0.571885 0.449962
vt 0.551812 0.529060
vt 0.433798 0.196578
vt 0.511006 0.164862
vt 0.455481 0.220169
vt 0.236486 0.834384
vt 0.237125 0.821756
vt 0.242865 0.821932
vt 0.710199 0.548339
vt 0.821670 0.649141
vt 0.698338 0.635141
vt 0.779449 0.446036
vt 0.904793 0.433587
vt 0.836494 0.507393
vt 0.492834 0.428261
vt 0.433200 0.420141
vt 0.224870 0.179789
vt 0.211325 0.265498
vt 0.128771 0.247702
vt 0.571375 0.438734
vt 0.513871 0.416841
vt 0.541321 0.383767
vt 0.241413 0.359171
vt 0.210120 0.376567
vt 0.109991 0.587302
vt 0.029452 0.602177
vt 0.039695 0.513392
vt 0.114504 0.174054
vt 0.625868 0.492914
vt 0.147783 0.400617
vt 0.175397 0.434004
vt 0.115309 0.453811
vt 0.112585 0.766997
vt 0.103762 0.752036
vt 0.113485 0.741194
vt 0.300302 0.278966
vt 0.297198 0.202208
vt 0.346412 0.196767
vt 0.393808 0.667046
vt 0.367643 0.610863
vt 0.477800 0.009257
vt 0.561481 0.099148
vt 0.454372 0.059024
vt 0.032965 0.833374
vt 0.036264 0.824969
vt 0.037567 0.835693
vt 0.537476 0.641622
vt 0.571338 0.761084
vt 0.557234 0.779472
vt 0.566604 0.737737
vt 0.479110 0.396105
vt 0.592716 0.201045
vt 0.418534 0.807102
vt 0.430864 0.796759
vt 0.294919 0.115350
vt 0.199715 0.095085
vt 0.573600 0.374079
vt 0.318812 0.734311
vt 0.315562 0.715895
vt 0.338350 0.704505
vt 0.882165 0.588569
vt 0.922027 0.524873
vt 0.533556 0.020563
vt 0.623008 0.081068
vt 0.745580 0.118269
vt 0.882610 0.097629
vt 0.850471 0.243006
vt 0.723858 0.038558
vt 0.771340 0.057458
vt 0.942051 0.182538
vt 0.901636 0.279740
vt 0.097089 0.297641
vt 0.072276 0.289264
vt 0.688209 0.076607
vt 0.124921 0.125253
vt 0.117661 0.031229
vt 0.206828 0.032733
vt 0.291457 0.616453
vt 0.273406 0.676677
vt 0.300151 0.813345
vt 0.284982 0.801659
vt 0.288073 0.782509
vt 0.854791 0.704238
vt 0.944674 0.600867
vt 0.654785 0.754395
vt 0.652576 0.780015
vt 0.652344 0.753174
vt 0.039858 0.206712
vt 0.734464 0.695155
vt 0.711344 0.696529
vt 0.696093 0.675425
vt 0.096088 0.303503
vt 0.093643 0.365653
vt 0.070383 0.322903
vt 0.836557 0.028117
vt 0.870117 0.036621
vt 0.399918 0.497422
vt 0.391380 0.175460
vt 0.395632 0.096813
vt 0.415322 0.170693
vt 0.204001 0.443181
vt 0.955345 0.544538
vt 0.066590 0.137596
vt 0.299686 0.565411
vt 0.576370 0.335945
vt 0.563477 0.349121
vt 0.551359 0.338622
vt 0.962399 0.484569
vt 0.485114 0.331046
vt 0.452668 0.274396
vt 0.461457 0.280535
vt 0.596293 0.785789
vt 0.580566 0.766602
vt 0.600447 0.763759
vt 0.396603 0.212956
vt 0.409538 0.232625
vt 0.758102 0.289225
vt 0.712467 0.219322
vt 0.185785 0.734350
vt 0.079584 0.273624
vt 0.039011 0.256929
vt 0.454602 0.125068
vt 0.091789 0.697753
vt 0.798166 0.354555
vt 0.792508 0.339748
vt 0.798828 0.333496
vt 0.116992 0.297908
vt 0.446637 0.477132
vt 0.381448 0.451242
vt 0.666037 0.207853
vt 0.665538 0.282806
vt 0.617977 0.208541
vt 0.961421 0.251676
vt 0.974609 0.218750
vt 0.991530 0.215409
vt 0.995505 0.114319
vt 0.982696 0.090606
vt 0.808743 0.051742
vt 0.412422 0.293017
vt 0.410319 0.251498
vt 0.241076 0.777938
vt 0.240954 0.744877
vt 0.250726 0.771789
vt 0.709971 0.422594
vt 0.776457 0.378771
vt 0.533342 0.713144
vt 0.499223 0.686132
vt 0.373173 0.792911
vt 0.356501 0.786199
vt 0.373694 0.749538
vt 0.653333 0.738312
vt 0.654297 0.751831
vt 0.668330 0.753777
vt 0.533958 0.310758
vt 0.285015 0.021711
vt 0.309858 0.050504
vt 0.663750 0.591293
vt 0.038208 0.086066
vt 0.688129 0.490599
vt 0.314202 0.193511
vt 0.340292 0.154245
vt 0.599741 0.801782
vt 0.607417 0.796206
vt 0.603479 0.818919
vt 0.282655 0.339840
vt 0.205359 0.661576
vt 0.229483 0.599597
vt 0.577863 0.279798
vt 0.548815 0.292229
s 0
usemtl Material_1.005
f 62/1/1 23/2/2 10/3/3
f 2/4/4 3/5/5 24/6/6
f 51/7/7 33/8/8 54/9/9
f 37/10/10 36/11/11 9/12/12
f 22/13/13 49/14/14 53/15/15
f 23/16/16 16/17/17 41/18/18
f 16/19/19 40/20/20 3/21/21
f 24/22/22 13/23/23 2/24/24
f 45/25/25 18/26/26 54/9/27
f 58/27/28 14/28/29 40/29/30
f 10/30/31 23/31/32 5/32/33
f 63/33/34 48/34/35 24/35/36
f 44/36/37 19/37/38 64/38/39
f 12/39/40 54/9/41 62/40/42
f 60/41/43 25/42/44 11/43/45
f 45/44/46 12/45/47 21/46/48
f 25/42/49 30/47/50 35/48/51
f 48/34/52 63/33/53 64/38/54
f 27/49/55 5/50/56 13/51/57
f 11/43/58 34/52/59 60/41/60
f 37/53/61 18/26/62 45/25/63
f 48/54/64 38/55/65 39/56/66
f 47/57/67 8/58/68 58/59/69
f 55/60/70 17/61/71 20/62/72
f 52/63/73 47/64/74 51/7/75
f 61/65/76 59/66/77 47/67/78
f 53/68/79 28/69/80 7/70/81
f 35/71/82 52/63/83 51/7/84
f 5/72/85 21/73/86 10/74/87
f 12/39/88 62/40/89 10/75/90
f 40/20/91 14/28/92 1/76/93
f 12/77/94 10/3/95 21/78/96
f 4/79/97 60/41/98 15/80/99
f 45/44/100 21/46/101 36/81/102
f 23/82/103 41/83/104 5/84/105
f 6/85/106 64/38/107 43/86/108
f 59/66/109 61/87/110 32/88/111
f 20/89/112 46/90/113 50/91/114
f 56/92/115 19/93/116 20/89/117
f 50/91/118 61/94/119 52/95/120
f 11/43/121 26/96/122 57/97/123
f 4/98/124 56/92/125 20/89/126
f 28/99/127 38/100/128 31/101/129
f 42/102/130 9/103/131 22/13/132
f 64/38/133 19/37/134 43/86/135
f 24/104/136 3/105/137 1/106/138
f 38/107/139 48/34/140 31/108/141
f 45/25/142 54/9/143 12/45/144
f 65/109/145 37/110/146 66/111/147
f 34/52/148 11/43/149 42/112/150
f 39/113/151 13/114/152 24/115/153
f 26/116/154 37/117/155 57/118/156
f 19/119/157 44/120/158 46/90/159
f 53/15/160 27/49/161 39/56/162
f 51/7/163 47/64/164 33/121/165
f 64/38/166 6/85/167 48/34/168
f 31/101/169 15/80/170 28/99/171
f 33/122/172 47/123/173 58/124/174
f 39/56/175 38/125/176 53/15/177
f 15/80/178 60/41/179 34/52/180
f 31/108/181 6/85/182 43/126/183
f 28/99/184 34/52/185 7/127/186
f 7/128/187 22/13/188 53/15/189
f 2/129/190 13/130/191 5/131/192
f 43/86/193 19/37/194 56/132/195
f 23/133/196 29/134/197 16/135/198
f 16/136/199 58/137/200 40/138/201
f 33/139/202 58/27/203 29/140/204
f 50/91/205 46/90/206 61/94/207
f 30/141/208 55/142/209 50/91/210
f 45/143/211 36/11/212 37/10/213
f 57/144/214 9/145/215 42/112/216
f 47/67/217 14/28/218 8/146/219
f 21/147/220 5/50/221 27/49/222
f 25/42/223 60/41/224 17/61/225
f 31/148/226 43/149/227 4/150/228
f 26/151/229 25/42/230 35/48/231
f 54/152/232 33/121/233 29/153/234
f 54/152/235 29/153/236 62/40/237
f 36/11/238 21/147/239 27/49/240
f 63/154/241 24/155/242 1/156/243
f 52/157/244 61/158/245 47/159/246
f 61/160/247 46/90/248 32/161/249
f 15/80/250 31/101/251 4/79/252
f 39/56/253 27/49/254 13/51/255
f 3/21/256 40/20/257 1/76/258
f 20/89/259 19/162/260 46/90/261
f 14/28/262 59/66/263 1/76/264
f 62/163/265 29/164/266 23/133/267
f 11/43/268 25/42/269 26/151/270
f 28/165/271 15/166/272 34/167/273
f 31/108/274 48/34/275 6/85/276
f 44/36/277 32/168/278 46/169/279
f 32/88/280 1/76/281 59/66/282
f 30/170/283 52/63/284 35/171/285
f 60/41/286 4/79/287 17/61/288
f 37/53/289 35/71/290 18/26/291
f 16/172/292 29/173/293 58/174/294
f 55/142/295 20/89/296 50/91/297
f 34/52/298 42/112/299 7/127/300
f 9/175/301 66/111/302 37/110/303
f 65/109/304 66/111/305 9/175/306
f 65/109/307 66/111/308 67/176/309
f 57/177/310 37/110/311 65/109/312
f 1/76/313 32/88/314 63/154/315
f 5/131/316 41/178/317 2/129/318
f 18/26/319 51/7/320 54/9/321
f 52/95/322 30/141/323 50/91/324
f 49/14/325 27/49/326 53/15/327
f 43/179/328 56/180/329 4/79/330
f 44/36/331 64/38/332 63/33/333
f 11/43/334 57/144/335 42/112/336
f 26/181/337 35/71/338 37/53/339
f 38/100/340 28/99/341 53/182/342
f 14/28/343 58/27/344 8/146/345
f 32/183/346 44/36/347 63/33/348
f 17/184/349 4/185/350 20/62/351
f 41/186/352 3/187/353 2/188/354
f 22/13/355 36/11/356 49/14/357
f 7/128/358 42/102/359 22/13/360
f 35/71/361 51/7/362 18/26/363
f 36/11/364 27/49/365 49/14/366
f 39/113/367 24/35/368 48/34/369
f 47/67/370 59/66/371 14/28/372
f 25/42/373 55/60/374 30/189/375
f 9/103/376 36/190/377 22/191/378
f 25/42/379 17/61/380 55/60/381
f 16/17/382 3/192/383 41/193/384
f 9/175/385 57/177/386 65/109/387
