# Blender 4.2.2 LTS
# www.blender.org
mtllib tetrahedron.mtl
o Cone
v 0.000000 -0.353553 -1.000000
v 0.866025 -0.353553 0.500000
v -0.866025 -0.353553 0.500000
v 0.000000 1.060660 0.000000
vn 0.8165 0.3333 -0.4714
vn -0.0000 -1.0000 -0.0000
vn -0.0000 0.3333 0.9428
vn -0.8165 0.3333 -0.4714
vt 0.000093 0.000093
vt 0.865957 0.500000
vt 0.000093 0.999907
vt 0.865957 0.500000
vt 0.000093 0.999907
vt 0.000093 0.000093
vt 0.000093 0.000093
vt 0.865957 0.500000
vt 0.000093 0.999907
vt 0.000093 0.000093
vt 0.865957 0.500000
vt 0.000093 0.999907
s 1
f 1/1/1 4/2/1 2/3/1
f 1/4/2 2/5/2 3/6/2
f 2/7/3 4/8/3 3/9/3
f 3/10/4 4/11/4 1/12/4
