# Blender 4.2.2 LTS
# www.blender.org
mtllib asteroidLow.mtl
o file1
v -0.879618 0.117483 0.606154
v -0.585987 -0.111327 -0.732416
v -0.703696 0.250757 0.846270
v 0.549636 -0.415631 -0.800524
v 0.440635 -0.310204 -0.918564
v -0.399648 0.869365 -0.474596
v -1.003059 -0.123661 0.300382
v -0.349961 0.462490 -0.942442
v 0.569588 0.013959 -0.916448
v 0.108935 0.829257 0.039497
v 0.376326 0.735772 -0.433864
v -0.492983 -0.879381 0.076492
v -0.141637 -0.616567 -0.687061
v 0.682170 -0.748829 -0.216909
v -0.197052 -0.327736 -0.768639
v 0.742976 -0.613499 0.092853
v 0.698964 -0.128661 0.572185
v -0.783709 0.508265 0.088111
v -0.902878 -0.453879 -0.122742
v 0.081010 0.137592 0.849350
v 0.128249 0.639707 0.508982
v 0.641867 -0.430999 0.654345
v 0.104324 0.897010 -0.302685
v 0.777953 -0.190342 -0.662476
v 0.662377 0.596848 0.094640
v 0.687187 -0.470698 -0.687057
v -0.106118 -0.351791 0.978668
v -0.500525 -0.475642 -0.700271
v -0.996196 -0.079791 0.010242
v -0.183373 0.909002 -0.164056
v -0.619678 0.691221 -0.625199
v 0.446407 -0.043160 0.755324
v -0.090495 0.667608 -0.769103
v -0.798334 -0.174470 0.729920
v -0.254448 0.119788 0.967202
v -0.171116 -0.847540 0.232311
v 0.882182 -0.330232 0.316987
v 0.857606 0.127526 -0.384358
v 0.055467 -0.930276 -0.144279
v -0.646149 -0.775448 -0.153610
v -0.323365 0.754173 -0.736444
v 0.663113 0.451670 -0.575978
v -0.467359 0.610025 0.595524
v 0.194195 -0.790391 0.509202
v 0.907532 0.128484 0.136559
v -0.806249 -0.370298 0.407952
v 0.849376 0.343231 -0.103914
v -0.373815 -0.699744 0.699277
v -0.794009 0.150302 -0.512792
v -0.100272 0.018966 -0.871672
v -0.339482 -0.712893 -0.437246
v 0.911873 -0.491944 -0.209869
v -0.524927 0.296115 -0.907464
v -0.351680 -0.035051 -0.812774
v 0.265911 0.118145 -0.990869
v 1.001824 -0.208577 -0.249517
v 0.436400 0.268678 -0.988236
v -0.766776 -0.155916 -0.539148
v 0.669191 0.238354 0.446189
v 0.786385 0.194326 -0.702792
v -0.492101 -0.300702 0.893354
v 0.230149 -0.511999 0.817243
v -0.727841 -0.635038 0.291436
v 0.270955 -0.657437 -0.686556
v -0.644214 0.761428 -0.063125
v -0.150776 -0.571000 0.786947
v -0.666980 -0.572338 -0.421940
vn 0.2371 0.8289 -0.5067
vn 0.2288 0.8326 -0.5044
vn -0.5206 -0.7813 0.3443
vn -0.5252 -0.7882 0.3209
vn -0.5183 -0.7894 0.3289
vn -0.7471 0.6338 0.2002
vn -0.7506 0.6311 0.1957
vn -0.7560 0.6237 0.1988
vn -0.8033 -0.4998 0.3238
vn -0.8037 -0.5025 0.3187
vn -0.8027 -0.5006 0.3243
vn 0.2914 -0.9459 0.1427
vn 0.2882 -0.9467 0.1439
vn 0.2907 -0.9465 0.1402
vn -0.7144 0.6219 0.3207
vn -0.7248 0.6070 0.3257
vn -0.7210 0.6103 0.3282
vn -0.6449 -0.3479 -0.6805
vn -0.6422 -0.3357 -0.6892
vn -0.6414 -0.3472 -0.6842
vn -0.8925 -0.3734 0.2529
vn -0.8940 -0.3709 0.2512
vn -0.8926 -0.3798 0.2429
vn -0.9059 -0.0687 0.4178
vn -0.9036 -0.0741 0.4219
vn -0.8959 -0.0716 0.4385
vn 0.2121 -0.0758 -0.9743
vn 0.2247 -0.0851 -0.9707
vn 0.2033 -0.0840 -0.9755
vn 0.7867 -0.5700 0.2372
vn 0.7938 -0.5714 0.2083
vn 0.7974 -0.5623 0.2190
vn -0.0328 0.5956 0.8026
vn -0.0455 0.5917 0.8049
vn -0.0445 0.5907 0.8057
vn 0.3686 -0.0510 0.9282
vn 0.3802 -0.0820 0.9212
vn 0.3806 -0.0481 0.9235
vn 0.1311 0.9733 0.1882
vn 0.1175 0.9711 0.2078
vn 0.1395 0.9712 0.1933
vn 0.7373 -0.6595 0.1462
vn 0.7257 -0.6708 0.1529
vn 0.7398 -0.6589 0.1366
vn -0.5036 -0.1184 0.8558
vn -0.5112 -0.1129 0.8520
vn -0.5057 -0.1242 0.8537
vn 0.8849 0.4542 -0.1035
vn 0.8777 0.4690 -0.0986
vn 0.8789 0.4694 -0.0844
vn 0.8096 0.2513 0.5305
vn 0.7932 0.2403 0.5595
vn 0.8096 0.2448 0.5336
vn -0.7238 0.6033 0.3350
vn -0.7296 0.6010 0.3263
vn -0.7284 0.5960 0.3379
vn -0.1532 0.8297 0.5368
vn -0.1507 0.8248 0.5450
vn -0.1390 0.8315 0.5378
vn -0.7452 -0.5631 -0.3572
vn -0.7475 -0.5539 -0.3666
vn -0.7309 -0.5711 -0.3736
vn -0.5574 -0.4915 0.6692
vn -0.5631 -0.4823 0.6711
vn -0.5596 -0.4967 0.6634
vn -0.3493 -0.7642 -0.5422
vn -0.3557 -0.7580 -0.5468
vn -0.3328 -0.7519 -0.5691
vn -0.9027 0.3606 -0.2347
vn -0.9042 0.3564 -0.2353
vn -0.9038 0.3577 -0.2349
vn -0.7740 -0.6301 0.0634
vn -0.7804 -0.6219 0.0646
vn -0.7781 -0.6260 0.0516
vn 0.7446 -0.0865 -0.6619
vn 0.7317 -0.0971 -0.6747
vn 0.7339 -0.0850 -0.6739
vn 0.0817 0.6244 0.7768
vn 0.0779 0.6221 0.7791
vn 0.8671 0.1868 -0.4618
vn 0.8655 0.1897 -0.4635
vn 0.8678 0.1877 -0.4601
vn -0.0848 -0.4564 0.8857
vn -0.0830 -0.4544 0.8869
vn -0.1072 -0.4493 0.8870
vn -0.9246 -0.0491 -0.3777
vn -0.9174 -0.0481 -0.3952
vn -0.9253 -0.0521 -0.3755
vn 0.2590 0.5259 0.8101
vn 0.2483 0.5404 0.8040
vn 0.2538 0.5191 0.8162
vn 0.5613 0.8112 0.1642
vn 0.5592 0.8154 0.1498
vn 0.5551 0.8166 0.1584
vn 0.9497 -0.2814 0.1377
vn 0.9499 -0.2796 0.1397
vn 0.9464 -0.2871 0.1479
vn 0.0975 0.5656 -0.8189
vn 0.0901 0.5641 -0.8208
vn 0.1007 0.5744 -0.8123
vn -0.7951 -0.3336 -0.5064
vn -0.8002 -0.3323 -0.4993
vn -0.8039 -0.3207 -0.5009
vn 0.6209 0.1077 -0.7764
vn 0.6447 0.1269 -0.7539
vn 0.6510 0.1183 -0.7498
vn 0.0382 -0.6622 0.7483
vn 0.0436 -0.6707 0.7405
vn 0.0864 -0.6484 0.7564
vn 0.5165 0.6072 0.6037
vn 0.5170 0.5947 0.6156
vn 0.5303 0.5953 0.6036
vn 0.8829 -0.2180 -0.4159
vn 0.8753 -0.2555 -0.4105
vn 0.8704 -0.2445 -0.4273
vn -0.3039 -0.8248 -0.4768
vn -0.3056 -0.8328 -0.4616
vn -0.3080 -0.8266 -0.4710
vn -0.7932 -0.2490 -0.5558
vn -0.7957 -0.2359 -0.5578
vn -0.7937 -0.2302 -0.5631
vn 0.5310 -0.7867 0.3148
vn 0.5236 -0.7945 0.3077
vn 0.5354 -0.7851 0.3115
vn -0.3382 0.8211 -0.4598
vn -0.3463 0.8089 -0.4752
vn -0.3511 0.8198 -0.4524
vn 0.0087 0.9275 0.3736
vn 0.0079 0.9277 0.3733
vn 0.0015 0.9230 0.3848
vn -0.3939 0.5547 -0.7329
vn -0.3785 0.5545 -0.7411
vn -0.3983 0.5446 -0.7381
vn -0.7258 -0.0156 -0.6878
vn -0.7398 -0.0035 -0.6729
vn -0.7219 0.0127 -0.6919
vn -0.0017 -0.9771 0.2127
vn -0.0131 -0.9754 0.2200
vn -0.0042 -0.9806 0.1962
vn -0.6734 -0.7315 0.1067
vn -0.6656 -0.7383 0.1090
vn -0.6669 -0.7332 0.1330
vn -0.9535 0.2911 -0.0780
vn -0.9465 0.3129 -0.0788
vn -0.9544 0.2867 -0.0831
vn 0.0876 0.9206 -0.3805
vn 0.0703 0.9183 -0.3896
vn 0.0814 0.9217 -0.3793
vn -0.5323 0.4074 -0.7421
vn -0.5287 0.3994 -0.7490
vn -0.5375 0.4006 -0.7421
vn 0.4035 -0.0626 0.9128
vn 0.3902 -0.0760 0.9176
vn 0.4058 -0.0668 0.9115
vn 0.3279 0.1179 0.9373
vn 0.3230 0.1244 0.9382
vn 0.3218 0.1223 0.9389
vn 0.3018 0.1294 0.9445
vn 0.3137 0.1284 0.9408
vn 0.3119 0.1364 0.9403
vn -0.8043 -0.1499 -0.5751
vn -0.7948 -0.1337 -0.5920
vn -0.7887 -0.1381 -0.5990
vn 0.8919 0.3716 -0.2577
vn 0.8864 0.3751 -0.2713
vn 0.8820 0.3892 -0.2655
vn 0.6010 0.1297 0.7886
vn 0.5992 0.0876 0.7958
vn 0.6135 0.0956 0.7839
vn -0.2108 0.2524 -0.9444
vn -0.2050 0.2495 -0.9464
vn -0.1803 0.2221 -0.9582
vn -0.8428 0.1630 -0.5130
vn -0.8470 0.1730 -0.5026
vn -0.8392 0.1664 -0.5177
vn -0.0072 0.9939 -0.1103
vn -0.0170 0.9927 -0.1198
vn -0.0161 0.9931 -0.1164
vn 0.9828 0.1637 -0.0860
vn 0.9832 0.1561 -0.0945
vn 0.9822 0.1607 -0.0970
vn 0.4330 0.4775 0.7645
vn 0.4317 0.4784 0.7647
vn 0.4361 0.4693 0.7678
vn -0.9124 0.4080 0.0317
vn -0.9095 0.4136 0.0415
vn -0.9065 0.4207 0.0373
vn -0.0262 -0.2764 -0.9607
vn -0.0229 -0.2765 -0.9607
vn -0.0211 -0.2804 -0.9597
vn -0.1277 0.9588 0.2537
vn -0.0860 0.9614 0.2612
vn -0.1229 0.9642 0.2351
vn -0.0371 -0.9562 0.2904
vn -0.0444 -0.9570 0.2867
vn -0.0380 -0.9648 0.2603
vn -0.0322 -0.1782 -0.9835
vn -0.0410 -0.1591 -0.9864
vn -0.0101 -0.1623 -0.9867
vn -0.0071 -0.9770 0.2130
vn -0.0122 -0.9787 0.2050
vn -0.0040 -0.9774 0.2115
vn -0.6647 -0.5658 0.4879
vn -0.6685 -0.5633 0.4855
vn -0.6645 -0.5676 0.4862
vn -0.9236 -0.0980 -0.3707
vn -0.9161 -0.0746 -0.3939
vn -0.9206 -0.1059 -0.3758
vn 0.6119 0.5057 0.6081
vn 0.6091 0.5065 0.6103
vn 0.6155 0.5002 0.6091
vn 0.3465 0.3296 0.8782
vn 0.3463 0.3289 0.8786
vn -0.1414 -0.3464 -0.9274
vn -0.1485 -0.3414 -0.9281
vn -0.1471 -0.3333 -0.9313
vn 0.1971 0.4720 -0.8593
vn 0.1951 0.4774 -0.8568
vn 0.2234 0.4897 -0.8428
vn 0.8552 0.4756 0.2058
vn 0.8577 0.4685 0.2117
vn 0.8602 0.4651 0.2090
vn 0.3758 -0.7084 0.5975
vn 0.3614 -0.7162 0.5970
vn 0.3764 -0.7147 0.5895
vn -0.0678 -0.9577 0.2797
vn -0.0602 -0.9589 0.2774
vn -0.0585 -0.9570 0.2842
vn 0.1688 -0.1744 -0.9701
vn 0.2100 -0.1673 -0.9633
vn 0.1708 -0.1990 -0.9650
vn -0.9420 0.3266 0.0778
vn -0.9354 0.3433 0.0847
vn -0.9412 0.3310 0.0675
vn -0.0691 -0.2820 -0.9569
vn -0.0853 -0.2906 -0.9530
vn -0.0789 -0.2792 -0.9570
vn 0.5900 0.5654 -0.5764
vn 0.5799 0.5771 -0.5751
vn 0.5917 0.5674 -0.5727
vn 0.7761 0.4514 0.4403
vn 0.7818 0.4327 0.4489
vn 0.7814 0.4461 0.4363
vn -0.2099 -0.0446 0.9767
vn -0.2259 -0.0420 0.9733
vn -0.2226 -0.0574 0.9732
vn 0.2613 0.8291 -0.4943
vn 0.2455 0.8236 -0.5112
vn 0.2417 0.8261 -0.5090
vn 0.3390 0.8800 0.3326
vn 0.3269 0.8814 0.3408
vn 0.3369 0.8757 0.3459
vn -0.0852 -0.8766 -0.4736
vn -0.0916 -0.8760 -0.4735
vn -0.0885 -0.8718 -0.4818
vn 0.7076 0.6756 -0.2069
vn 0.6939 0.6922 -0.1984
vn 0.7093 0.6761 -0.1995
vn -0.8076 -0.5404 0.2360
vn -0.8079 -0.5419 0.2316
vn -0.7996 -0.5528 0.2348
vn 0.2679 -0.9008 0.3417
vn 0.2641 -0.8997 0.3475
vn 0.2681 -0.9021 0.3383
vn -0.1968 -0.3936 -0.8980
vn -0.1954 -0.3625 -0.9112
vn -0.1889 -0.3527 -0.9165
vn -0.1882 -0.4804 -0.8566
vn -0.1694 -0.4928 -0.8535
vn -0.1890 -0.4807 -0.8563
vn 0.6003 -0.1148 -0.7915
vn 0.6087 -0.1233 -0.7837
vn 0.5868 -0.1574 -0.7943
vn 0.3153 0.7436 -0.5896
vn 0.3161 0.7421 -0.5910
vn 0.3107 0.7400 -0.5965
vn -0.3464 -0.7468 -0.5678
vn -0.3408 -0.7514 -0.5651
vn -0.3482 -0.7489 -0.5639
vn 0.2193 -0.9039 -0.3673
vn 0.2174 -0.9043 -0.3675
vn 0.2225 -0.9027 -0.3681
vn -0.2152 -0.2172 -0.9521
vn -0.2146 -0.2310 -0.9490
vn -0.2404 -0.2083 -0.9481
vn -0.5703 0.8122 -0.1229
vn -0.5679 0.8119 -0.1355
vn -0.5717 0.8109 -0.1247
vn -0.2657 -0.0196 0.9639
vn -0.2598 -0.0323 0.9651
vn -0.2647 -0.0185 0.9642
vn 0.9280 0.3607 -0.0928
vn 0.9232 0.3756 -0.0814
vn 0.9322 0.3577 -0.0558
vn -0.8966 -0.3700 0.2433
vn -0.9091 -0.3594 0.2106
vn -0.9038 -0.3662 0.2215
vn 0.7208 -0.6054 0.3375
vn 0.7113 -0.6242 0.3231
vn 0.7196 -0.6145 0.3235
vn 0.6540 -0.2253 -0.7222
vn 0.6586 -0.2188 -0.7200
vn 0.6613 -0.2500 -0.7073
vn 0.1565 -0.6879 0.7088
vn 0.1223 -0.6958 0.7077
vn 0.1226 -0.7013 0.7023
vn -0.1276 -0.2331 -0.9640
vn -0.1774 -0.2456 -0.9530
vn -0.1745 -0.2330 -0.9567
vn -0.8139 0.0168 0.5807
vn -0.8007 0.0047 0.5990
vn -0.8108 0.0268 0.5848
vn 0.2390 -0.6007 -0.7629
vn 0.2299 -0.6244 -0.7465
vn 0.2242 -0.6148 -0.7561
vn -0.2353 -0.2585 -0.9369
vn -0.2397 -0.2525 -0.9375
vn -0.2228 -0.2588 -0.9399
vn -0.1989 -0.8959 -0.3974
vn -0.1943 -0.8933 -0.4054
vn -0.1873 -0.8942 -0.4067
vn 0.3012 -0.6630 -0.6854
vn 0.2979 -0.6657 -0.6842
vn 0.2929 -0.6657 -0.6864
vn 0.3771 0.9256 0.0309
vn 0.3833 0.9229 0.0360
vn 0.3890 0.9206 0.0350
vn 0.3557 -0.8029 -0.4783
vn 0.3630 -0.8037 -0.4715
vn 0.3598 -0.8058 -0.4704
vn 0.8626 0.1461 0.4843
vn 0.8551 0.1482 0.4969
vn -0.2766 -0.2648 -0.9238
vn -0.2276 -0.2769 -0.9336
vn -0.2044 -0.3014 -0.9314
vn 0.7029 -0.6244 -0.3407
vn 0.6772 -0.6255 -0.3876
vn 0.7078 -0.6073 -0.3609
vn -0.9112 0.3645 -0.1919
vn -0.9112 0.3649 -0.1912
vn -0.9098 0.3670 -0.1938
vn 0.9762 0.0304 0.2148
vn 0.9766 0.0174 0.2143
vn 0.9774 0.0320 0.2091
vn -0.1465 -0.8793 -0.4532
vn -0.1534 -0.8730 -0.4629
vn -0.1427 -0.8774 -0.4580
vn 0.0611 -0.7350 0.6753
vn 0.0605 -0.7456 0.6636
vn 0.0754 -0.7474 0.6601
vn 0.6760 0.7309 -0.0937
vn 0.6782 0.7283 -0.0987
vn 0.6715 0.7335 -0.1048
vn 0.4315 0.7124 -0.5535
vn 0.4360 0.7071 -0.5566
vn 0.8272 -0.3179 -0.4633
vn 0.8260 -0.3272 -0.4590
vn 0.8228 -0.3279 -0.4642
vn -0.2808 -0.1253 -0.9515
vn -0.2502 -0.1658 -0.9539
vn -0.3023 -0.1804 -0.9360
vn -0.2027 -0.9360 -0.2878
vn -0.2085 -0.9353 -0.2859
vn -0.2021 -0.9355 -0.2897
vn -0.1127 -0.2171 -0.9696
vn -0.1194 -0.2051 -0.9714
vn -0.1152 -0.2044 -0.9721
vn -0.2971 0.9517 0.0779
vn -0.2867 0.9545 0.0821
vn -0.2840 0.9558 0.0763
vn 0.6156 -0.2370 -0.7516
vn 0.6009 -0.2356 -0.7638
vn 0.6010 -0.2317 -0.7649
vn 0.8260 0.0303 0.5629
vn 0.7979 -0.0015 0.6028
vn 0.8128 -0.0062 0.5824
vn -0.2490 -0.6064 0.7552
vn -0.2560 -0.6123 0.7481
vn -0.2361 -0.6151 0.7523
vn -0.9732 -0.2230 -0.0567
vn -0.9735 -0.2217 -0.0557
vn -0.9722 -0.2248 -0.0653
vn 0.9740 -0.0392 -0.2231
vn 0.9734 -0.0559 -0.2220
vn 0.9696 -0.0547 -0.2383
vt 0.509783 0.080882
vt 0.552093 0.037323
vt 0.588671 0.010409
vt 0.243498 0.390479
vt 0.184535 0.407092
vt 0.259658 0.347149
vt 0.078389 0.273925
vt 0.026606 0.305722
vt 0.010171 0.196372
vt 0.195130 0.315282
vt 0.117956 0.340409
vt 0.168957 0.270323
vt 0.522559 0.571669
vt 0.577507 0.528124
vt 0.649625 0.598475
vt 0.082034 0.146333
vt 0.335772 0.825201
vt 0.311560 0.820972
vt 0.325970 0.807590
vt 0.251764 0.328716
vt 0.947840 0.273746
vt 0.912796 0.194238
vt 0.977736 0.208723
vt 0.783766 0.699077
vt 0.897013 0.695020
vt 0.847624 0.738236
vt 0.658332 0.344167
vt 0.584394 0.378895
vt 0.629528 0.272173
vt 0.112021 0.719562
vt 0.046279 0.654311
vt 0.147705 0.626065
vt 0.512848 0.153260
vt 0.578760 0.101815
vt 0.274117 0.638646
vt 0.284430 0.575759
vt 0.285876 0.607763
vt 0.122117 0.434089
vt 0.133704 0.466813
vt 0.054860 0.427601
vt 0.768578 0.475455
vt 0.788643 0.560054
vt 0.729641 0.526664
vt 0.287625 0.523795
vt 0.260840 0.543641
vt 0.248174 0.481286
vt 0.063081 0.081679
vt 0.661157 0.128618
vt 0.420583 0.738823
vt 0.465333 0.727274
vt 0.462009 0.771265
vt 0.098146 0.371571
vt 0.397061 0.702368
vt 0.441903 0.645967
vt 0.197727 0.201783
vt 0.526149 0.780404
vt 0.673577 0.530830
vt 0.707437 0.607234
vt 0.505133 0.260968
vt 0.799431 0.639212
vt 0.154857 0.458059
vt 0.221150 0.533193
vt 0.176160 0.548015
vt 0.277327 0.124897
vt 0.234395 0.088565
vt 0.505142 0.368492
vt 0.447583 0.071327
vt 0.772833 0.055532
vt 0.835949 0.073216
vt 0.781537 0.126548
vt 0.287889 0.187160
vt 0.264855 0.160224
vt 0.309147 0.191394
vt 0.677793 0.490893
vt 0.130969 0.543327
vt 0.374571 0.273916
vt 0.391885 0.185159
vt 0.680593 0.651410
vt 0.358046 0.657883
vt 0.391784 0.584549
vt 0.245758 0.575047
vt 0.263738 0.610208
vt 0.249364 0.634997
vt 0.196586 0.771168
vt 0.217304 0.668055
vt 0.722802 0.063634
vt 0.747864 0.021745
vt 0.688445 0.198695
vt 0.721835 0.236872
vt 0.682422 0.230971
vt 0.526847 0.716887
vt 0.580553 0.663374
vt 0.524450 0.750567
vt 0.139902 0.005855
vt 0.618414 0.042250
vt 0.742786 0.160978
vt 0.041544 0.503085
vt 0.022317 0.588608
vt 0.732007 0.197841
vt 0.699778 0.185582
vt 0.860662 0.528427
vt 0.056399 0.748698
vt 0.945659 0.160144
vt 0.219494 0.016602
vt 0.902787 0.593325
vt 0.416178 0.355825
vt 0.896829 0.329819
vt 0.816368 0.323872
vt 0.807578 0.284637
vt 0.639634 0.730338
vt 0.837414 0.206381
vt 0.287873 0.237555
vt 0.407882 0.320221
vt 0.432442 0.298375
vt 0.803448 0.791071
vt 0.814266 0.754357
vt 0.823286 0.782732
vt 0.259070 0.826075
vt 0.241024 0.812753
vt 0.257792 0.812912
vt 0.972003 0.174680
vt 0.750897 0.315706
vt 0.368713 0.251908
vt 0.128293 0.489416
vt 0.861805 0.004520
vt 0.886989 0.038037
vt 0.424206 0.494879
vt 0.911899 0.495430
vt 0.829849 0.458790
vt 0.183655 0.279360
vt 0.172142 0.795650
vt 0.822766 0.817720
vt 0.401674 0.507867
vt 0.357468 0.543730
vt 0.361671 0.443238
vt 0.671030 0.615096
vt 0.910260 0.054916
vt 0.546349 0.448896
vt 0.835641 0.207874
vt 0.888700 0.291129
vt 0.643013 0.030772
vt 0.761273 0.762192
vt 0.777016 0.769380
vt 0.766369 0.830896
vt 0.118112 0.800905
vt 0.999201 0.246054
vt 0.982980 0.260998
vt 0.990085 0.229940
vt 0.766488 0.230219
vt 0.916150 0.316568
vt 0.943533 0.308103
vt 0.403236 0.440999
vt 0.449513 0.416013
vt 0.935454 0.667750
vt 0.757206 0.725389
vt 0.764387 0.390597
vt 0.770020 0.391113
vt 0.770020 0.403320
vt 0.742310 0.452200
vt 0.741662 0.278641
vt 0.713212 0.812412
vt 0.731305 0.769515
vt 0.727147 0.841940
vt 0.073915 0.780039
vt 0.180077 0.531923
s 0
usemtl Material_1.006
f 23/1/1 33/2/2 41/3/1
f 12/4/3 48/5/4 63/6/5
f 1/7/6 3/8/7 43/9/8
f 46/10/9 34/11/10 7/12/11
f 39/13/12 14/14/13 44/15/14
f 1/7/15 43/9/16 18/16/17
f 2/17/18 67/18/19 58/19/20
f 46/10/21 63/20/22 34/11/23
f 34/11/24 1/7/25 7/12/26
f 5/21/27 55/22/28 9/23/29
f 52/24/30 37/25/31 16/26/32
f 3/27/33 35/28/34 43/29/35
f 22/30/36 32/31/37 62/32/38
f 10/33/39 23/1/40 30/34/41
f 14/35/42 52/36/43 16/37/44
f 34/38/45 61/39/46 3/40/47
f 42/41/48 38/42/49 60/43/50
f 17/44/51 45/45/52 59/46/53
f 18/16/54 43/9/55 65/47/56
f 10/33/57 30/34/58 65/48/59
f 67/49/60 40/50/61 19/51/62
f 34/11/63 48/5/64 61/52/65
f 67/53/66 51/54/67 40/50/68
f 29/55/69 18/16/70 65/47/71
f 19/51/72 40/50/73 63/56/74
f 9/57/75 60/43/76 24/58/77
f 43/29/78 35/28/78 21/59/79
f 38/42/80 56/60/81 24/58/82
f 61/61/83 48/62/84 66/63/85
f 58/64/86 29/55/87 49/65/88
f 35/28/89 20/66/90 21/59/91
f 23/1/92 10/33/93 11/67/94
f 37/25/95 52/24/96 56/60/97
f 41/68/98 33/69/99 8/70/100
f 19/71/101 58/72/102 67/73/103
f 60/43/104 9/57/105 57/74/106
f 62/32/107 27/75/108 66/63/109
f 59/76/110 25/77/111 21/59/112
f 26/78/113 24/58/114 52/24/115
f 67/53/116 28/79/117 13/80/118
f 2/81/119 28/82/120 67/83/121
f 14/84/122 22/30/123 44/85/124
f 31/86/125 6/87/126 41/68/127
f 43/29/128 21/59/129 10/33/130
f 8/70/131 31/86/132 41/68/133
f 49/88/134 2/89/135 58/90/136
f 12/91/137 39/13/138 36/92/139
f 12/93/140 63/56/141 40/50/142
f 31/94/143 49/65/144 65/47/145
f 6/95/146 23/1/147 41/3/148
f 53/96/149 31/86/150 8/70/151
f 62/32/152 32/31/153 27/75/154
f 35/97/155 27/75/156 20/98/157
f 32/31/158 20/98/159 27/75/160
f 53/96/161 2/99/162 49/100/163
f 42/41/164 47/101/165 38/42/166
f 22/30/167 17/102/168 32/31/169
f 57/103/170 55/22/171 33/69/172
f 31/94/173 53/104/174 49/65/175
f 6/95/176 30/34/177 23/1/178
f 38/42/179 47/101/180 45/105/181
f 20/66/182 32/106/183 21/59/184
f 1/7/185 29/55/186 7/12/187
f 64/107/188 13/108/189 15/109/190
f 10/33/191 65/48/192 43/29/193
f 12/91/194 36/92/195 48/110/196
f 8/70/197 50/111/198 53/96/199
f 39/13/200 44/15/201 36/92/202
f 63/20/203 48/5/204 34/11/205
f 58/72/206 19/112/207 29/55/208
f 32/106/209 17/113/210 21/59/211
f 17/114/212 59/76/213 21/59/212
f 53/115/214 50/116/215 54/117/216
f 33/69/217 55/22/218 8/70/219
f 45/118/220 47/119/221 25/120/222
f 44/85/223 22/30/224 62/32/225
f 44/15/226 48/110/227 36/92/228
f 9/23/229 55/22/230 57/121/231
f 18/16/232 29/55/233 1/7/234
f 28/122/235 15/109/236 13/108/237
f 42/41/238 60/43/239 57/74/240
f 45/123/241 25/77/242 59/76/243
f 61/124/244 27/75/245 35/97/246
f 33/69/247 23/125/248 11/126/249
f 21/59/250 25/77/251 10/33/252
f 13/80/253 64/127/254 39/13/255
f 25/128/256 47/101/257 11/129/258
f 19/112/259 46/10/260 7/130/261
f 14/84/262 16/131/263 22/30/264
f 53/115/265 54/117/266 2/132/267
f 64/133/268 15/134/269 5/135/270
f 26/78/271 4/136/272 24/58/273
f 57/103/274 33/69/275 11/137/276
f 51/54/277 67/53/278 13/80/279
f 64/127/280 14/138/281 39/13/282
f 15/109/283 50/139/284 5/140/285
f 31/141/286 65/48/287 6/95/288
f 35/142/289 3/143/290 61/144/291
f 45/105/292 56/60/293 38/42/294
f 19/112/295 63/20/296 46/10/297
f 16/131/298 37/145/299 22/30/300
f 24/146/301 4/147/302 9/148/303
f 48/62/304 44/85/305 66/63/306
f 54/149/307 50/139/308 15/109/309
f 3/8/310 1/7/311 34/11/312
f 64/107/313 5/150/314 4/151/315
f 55/22/316 5/21/317 50/139/318
f 51/54/319 39/13/320 40/50/321
f 64/127/322 4/152/323 26/153/324
f 25/77/325 11/67/326 10/33/327
f 14/138/328 64/127/329 26/153/330
f 17/154/331 37/25/332 45/105/332
f 55/22/333 50/111/334 8/70/335
f 26/78/336 52/24/337 14/155/338
f 65/47/339 49/65/340 29/55/341
f 56/60/342 45/105/343 37/25/344
f 13/80/345 39/13/346 51/54/347
f 44/85/348 62/32/349 66/63/350
f 42/156/351 11/157/352 47/158/353
f 57/74/354 11/159/355 42/41/354
f 52/24/356 24/58/357 56/60/358
f 28/160/359 2/89/360 54/149/361
f 40/50/362 39/13/363 12/91/364
f 54/149/365 15/109/366 28/160/367
f 30/34/368 6/95/369 65/48/370
f 5/161/371 9/162/372 4/163/373
f 22/30/374 37/164/375 17/102/376
f 66/165/377 27/75/378 61/124/379
f 29/55/380 19/112/381 7/130/382
f 24/58/383 60/43/384 38/42/385
